# File produced by Open Asset Import Library (http://www.assimp.sf.net)
# (assimp v3.1.187496374)

mtllib proto1.obj.mtl

# 172 vertex positions
v  37 50 -37
v  37 50 -35
v  37 52.5 -37
v  37 50 35
v  37 45 -35
v  37 45 35
v  37 52.5 37
v  37 50 37
v  -37 50 -37
v  -37 52.5 -37
v  -37 50 -35
v  -37 52.5 37
v  -37 50 35
v  -37 45 -35
v  -37 50 37
v  -37 45 35
v  40 50 40
v  50 50 40
v  40 52.5 40
v  112 52.5 40
v  117 50 40
v  117 52.5 40
v  112 55 40
v  192 55 40
v  192 52.5 40
v  117 52.5 -40
v  192 52.5 -40
v  192 55 -40
v  117 50 -40
v  112 55 -40
v  112 52.5 -40
v  40 50 -40
v  40 52.5 -40
v  50 50 -40
v  43 45 35
v  43 45 -35
v  43 50 35
v  43 45 40
v  43 -45 35
v  43 50 -35
v  43 -45 -35
v  43 -45 -40
v  43 45 -40
v  43 -45 40
v  40 45 35
v  40 45 -35
v  35 50 37
v  -35 50 37
v  35 45 37
v  -35 45 37
v  -40 50 40
v  -40 50 50
v  -40 52.5 40
v  -40 52.5 112
v  -40 50 117
v  -40 52.5 117
v  -40 55 112
v  -40 55 192
v  -40 52.5 192
v  40 52.5 117
v  40 52.5 192
v  40 55 192
v  40 50 117
v  40 55 112
v  40 52.5 112
v  40 50 50
v  -35 45 43
v  35 45 43
v  -35 50 43
v  -40 45 43
v  -35 -45 43
v  35 50 43
v  35 -45 43
v  40 -45 43
v  40 45 43
v  -40 -45 43
v  -35 45 40
v  35 45 40
v  -117 52.5 -40
v  -117 52.5 40
v  -192 52.5 -40
v  -192 52.5 40
v  -192 55 -40
v  -192 55 40
v  -117 50 40
v  -117 50 -40
v  -112 55 40
v  -112 55 -40
v  -112 52.5 40
v  -112 52.5 -40
v  -50 50 40
v  -40 50 -40
v  -50 50 -40
v  -40 52.5 -40
v  -43 45 -35
v  -43 45 35
v  -43 50 -35
v  -43 45 -40
v  -43 -45 -35
v  -43 50 35
v  -43 -45 35
v  -43 -45 40
v  -43 45 40
v  -43 -45 -40
v  -40 45 -35
v  -40 45 35
v  40 50 -50
v  40 52.5 -112
v  40 50 -117
v  40 52.5 -117
v  40 55 -112
v  40 55 -192
v  40 52.5 -192
v  -40 50 -50
v  -40 52.5 -112
v  -40 50 -117
v  -40 52.5 -117
v  -40 55 -112
v  -40 55 -192
v  -40 52.5 -192
v  35 50 -37
v  35 50 -43
v  -35 50 -43
v  -35 50 -37
v  35 45 -43
v  -35 45 -43
v  40 45 -43
v  35 -45 -43
v  -35 -45 -43
v  -40 -45 -43
v  -40 45 -43
v  40 -45 -43
v  35 45 -37
v  35 45 -40
v  -35 45 -37
v  -35 45 -40
v  -40 -45 40
v  -35 -45 40
v  -40 -45 35
v  -40 -45 -35
v  35 -45 40
v  -35 -45 -40
v  -40 -45 -40
v  40 -45 35
v  35 -45 -40
v  40 -45 40
v  40 -45 -35
v  40 -45 -40
v  40 -50 -40
v  40 -50 -50
v  50 -50 -40
v  50 -50 -50
v  -50 -50 -40
v  -50 -50 -50
v  -40 -50 -40
v  -40 -50 -50
v  -40 -50 40
v  -40 -50 50
v  -50 -50 40
v  -50 -50 50
v  40 -50 50
v  40 -50 40
v  50 -50 50
v  50 -50 40
v  40 45 -40
v  -40 45 40
v  -40 45 -40
v  40 45 40
v  -50 50 50
v  50 50 50
v  -50 50 -50
v  50 50 -50

# 0 UV coordinates

# 89 vertex normals
vn -1 0 0
vn -1 0 -3.55271e-15
vn 1 0 0
vn 1 0 3.55271e-15
vn 1 0 -1.01506e-16
vn 0 -5.68434e-15 1
vn 0 2.84217e-15 1
vn -8.88178e-17 2.66454e-15 1
vn -1.89478e-16 5.68434e-15 1
vn 0 -1 0
vn 1 -1.13687e-14 0
vn 1 2.01948e-30 -3.55271e-16
vn 8.88178e-17 1 8.88178e-17
vn 0 1 0
vn -1 -1.13687e-14 1.77636e-16
vn -1 -5.68434e-15 3.55271e-16
vn 0 8.52651e-15 -1
vn 2.84217e-15 -2.84217e-15 -1
vn 2.84217e-15 8.52651e-15 -1
vn 8.88178e-17 3.01981e-15 -1
vn 1.89478e-16 0 -1
vn 1 -1.42108e-15 0
vn 0 0 1
vn 0 1.42108e-15 -1
vn -2.36848e-15 0 -1
vn 3.55271e-15 0 -1
vn -1.01506e-16 2.92338e-15 -1
vn -1.01506e-16 0 -1
vn -1 -2.84217e-15 0
vn -1 2.84217e-15 0
vn -1 2.66454e-15 -8.88178e-17
vn 0 -1.13687e-14 1
vn 3.55271e-16 1.00974e-30 1
vn -8.88178e-17 1 8.88178e-17
vn -1.77636e-16 -1.13687e-14 -1
vn -3.55271e-16 -5.68434e-15 -1
vn 1 5.68434e-15 0
vn 1 6.07909e-15 9.86865e-17
vn 1 -2.84217e-15 1.42108e-15
vn 1 5.68434e-15 1.42108e-15
vn 1 3.01981e-15 8.88178e-17
vn 1 0 1.89478e-16
vn 0 -1.42108e-15 1
vn -1 0 2.36848e-15
vn -1 -1.42108e-15 0
vn 1 2.84217e-15 0
vn 1 0 -4.73695e-15
vn -1 -1.13687e-14 -0
vn -1 1.00974e-30 3.55271e-16
vn -8.88178e-17 1 -8.88178e-17
vn 1 -1.13687e-14 -1.77636e-16
vn 1 -5.68434e-15 -3.55271e-16
vn 0 8.52651e-15 1
vn 9.86865e-17 8.13177e-15 1
vn -2.84217e-15 -2.84217e-15 1
vn -2.84217e-15 8.52651e-15 1
vn -2.52435e-31 2.84217e-15 1
vn -9.4739e-17 0 1
vn 0 0 -1
vn -9.86865e-17 3.94746e-16 -1
vn -2.12102e-16 -2.41797e-15 -1
vn 0 -2.84217e-15 -1
vn 0 2.84217e-15 -1
vn 8.88178e-17 2.66454e-15 -1
vn -1 0 -2.84217e-15
vn 4.73695e-15 0 1
vn 1 -2.84217e-15 0
vn 1 -2.05268e-15 -1.97373e-16
vn 1 -2.41797e-15 -2.12102e-16
vn -1 2.44742e-15 9.86865e-17
vn -1 -5.68434e-15 -1.42108e-15
vn -1 8.52651e-15 -1.42108e-15
vn -1 5.50671e-15 8.88178e-17
vn -1 0 -9.4739e-17
vn 0 -1.13687e-14 -1
vn -3.55271e-16 1.00974e-30 -1
vn 8.88178e-17 1 -8.88178e-17
vn 1.77636e-16 -1.13687e-14 1
vn 3.55271e-16 -5.68434e-15 1
vn 1 0 2.36848e-15
vn 1 1.42108e-15 0
vn 9.60193e-17 -7.68154e-17 1
vn 1.01506e-16 0 1
vn 2.36848e-15 0 1
vn 0 1.42108e-15 1
vn -1.01506e-15 0 1
vn -1 0 -1.01506e-15
vn -1 1.42108e-15 0
vn -1 0 -1.01506e-16

# Mesh 'ascii' with 396 faces
g ascii
usemtl DefaultMaterial
f  1//1 2//1 3//1
f  3//1 2//1 4//1
f  5//1 6//1 2//1
f  2//1 6//1 4//1
f  7//2 3//1 4//1
f  7//2 4//1 8//2
f  9//3 10//3 11//3
f  11//3 10//3 12//3
f  13//4 11//3 12//3
f  13//4 14//5 11//3
f  13//4 12//3 15//4
f  13//4 16//5 14//5
f  17//6 18//6 19//6
f  19//6 18//6 20//6
f  20//6 18//6 21//6
f  22//6 20//6 21//6
f  22//6 23//7 20//6
f  22//6 24//8 23//7
f  22//6 25//9 24//8
f  22//10 26//10 25//10
f  25//10 26//10 27//10
f  25//3 27//3 24//3
f  24//3 27//3 28//3
f  26//11 22//11 29//11
f  29//11 22//11 21//12
f  30//13 23//13 28//13
f  28//13 23//13 24//14
f  31//15 20//15 30//15
f  30//15 20//15 23//16
f  32//17 33//17 34//17
f  34//17 33//17 31//17
f  29//18 34//17 31//17
f  29//18 31//17 26//18
f  31//17 30//19 26//18
f  26//18 30//19 28//20
f  27//21 26//18 28//20
f  35//22 36//22 37//22
f  38//3 39//3 35//22
f  37//22 36//22 40//22
f  41//3 42//3 36//22
f  36//22 42//3 43//3
f  44//3 39//3 38//3
f  6//23 45//23 4//23
f  4//23 45//23 37//23
f  37//23 45//23 35//23
f  36//24 46//24 40//24
f  40//24 46//24 2//24
f  2//24 46//24 5//25
f  46//10 36//10 45//10
f  45//10 36//10 35//10
f  8//26 47//26 7//26
f  7//26 47//26 48//27
f  49//28 50//28 47//26
f  47//26 50//28 48//27
f  12//26 7//26 48//27
f  12//26 48//27 15//26
f  51//29 52//29 53//29
f  53//29 52//29 54//29
f  54//29 52//29 55//29
f  56//29 54//29 55//29
f  56//29 57//30 54//29
f  56//29 58//31 57//30
f  56//29 59//1 58//31
f  56//10 60//10 59//10
f  59//10 60//10 61//10
f  59//23 61//23 58//23
f  58//23 61//23 62//23
f  60//32 56//32 63//32
f  63//32 56//32 55//33
f  64//34 57//34 62//34
f  62//34 57//34 58//14
f  65//35 54//35 64//35
f  64//35 54//35 57//36
f  17//37 19//37 66//37
f  66//37 19//37 65//38
f  63//39 66//37 65//38
f  63//39 65//38 60//39
f  65//38 64//40 60//39
f  60//39 64//40 62//41
f  61//42 60//39 62//41
f  67//43 68//43 69//43
f  70//23 71//23 67//43
f  69//43 68//43 72//43
f  73//23 74//23 68//43
f  68//43 74//23 75//23
f  76//23 71//23 70//23
f  50//44 77//44 48//44
f  48//44 77//44 69//45
f  69//45 77//44 67//45
f  68//46 78//46 72//46
f  72//46 78//46 47//46
f  47//46 78//46 49//47
f  78//10 68//10 77//10
f  77//10 68//10 67//10
f  79//10 80//10 81//10
f  81//10 80//10 82//10
f  81//1 82//1 83//1
f  83//1 82//1 84//1
f  80//48 79//48 85//48
f  85//48 79//48 86//49
f  87//50 88//50 84//50
f  84//50 88//50 83//14
f  89//51 90//51 87//51
f  87//51 90//51 88//52
f  51//53 53//53 91//53
f  91//53 53//53 89//54
f  85//55 91//53 89//54
f  85//55 89//54 80//55
f  89//54 87//56 80//55
f  80//55 87//56 84//57
f  82//58 80//55 84//57
f  92//59 93//59 94//59
f  94//59 93//59 90//60
f  90//60 93//59 86//61
f  79//62 90//60 86//61
f  79//62 88//63 90//60
f  79//62 83//64 88//63
f  79//62 81//59 83//64
f  95//45 96//45 97//45
f  98//65 99//65 95//45
f  97//45 96//45 100//45
f  101//1 102//1 96//45
f  96//45 102//1 103//1
f  104//65 99//65 98//65
f  14//59 105//59 11//59
f  11//59 105//59 97//59
f  97//59 105//59 95//59
f  96//7 106//7 100//7
f  100//7 106//7 13//7
f  13//7 106//7 16//66
f  106//10 96//10 105//10
f  105//10 96//10 95//10
f  32//67 107//67 33//67
f  33//67 107//67 108//68
f  108//68 107//67 109//69
f  110//67 108//68 109//69
f  110//67 111//46 108//68
f  110//67 112//46 111//46
f  110//67 113//46 112//46
f  92//30 94//30 114//30
f  114//30 94//30 115//70
f  116//71 114//30 115//70
f  116//71 115//70 117//71
f  115//70 118//72 117//71
f  117//71 118//72 119//73
f  120//74 117//71 119//73
f  31//14 33//14 3//14
f  20//14 31//14 3//14
f  33//14 108//14 3//14
f  20//14 3//14 7//14
f  3//14 108//14 115//14
f  3//14 115//14 10//14
f  19//14 20//14 7//14
f  19//14 7//14 65//14
f  54//14 7//14 12//14
f  54//14 65//14 7//14
f  54//14 12//14 53//14
f  10//14 89//14 12//14
f  12//14 89//14 53//14
f  90//14 89//14 10//14
f  10//14 115//14 94//14
f  90//14 10//14 94//14
f  110//10 117//10 113//10
f  113//10 117//10 120//10
f  113//59 120//59 112//59
f  112//59 120//59 119//59
f  117//75 110//75 116//75
f  116//75 110//75 109//76
f  118//77 111//77 119//77
f  119//77 111//77 112//14
f  115//78 108//78 118//78
f  118//78 108//78 111//79
f  121//10 122//10 1//10
f  1//10 122//10 32//10
f  32//10 122//10 107//10
f  107//10 122//10 123//10
f  2//10 1//10 40//10
f  40//10 1//10 32//10
f  40//10 32//10 34//10
f  18//10 40//10 34//10
f  18//10 37//10 40//10
f  18//10 34//10 21//10
f  34//10 29//10 21//10
f  18//10 17//10 37//10
f  37//10 17//10 8//10
f  4//10 37//10 8//10
f  66//10 72//10 17//10
f  17//10 72//10 8//10
f  8//10 72//10 47//10
f  69//10 72//10 66//10
f  52//10 69//10 66//10
f  55//10 66//10 63//10
f  55//10 52//10 66//10
f  51//10 15//10 69//10
f  15//10 48//10 69//10
f  52//10 51//10 69//10
f  91//10 100//10 51//10
f  100//10 15//10 51//10
f  13//10 15//10 100//10
f  93//10 97//10 100//10
f  91//10 93//10 100//10
f  91//10 86//10 93//10
f  91//10 85//10 86//10
f  92//10 97//10 93//10
f  92//10 9//10 97//10
f  9//10 11//10 97//10
f  114//10 123//10 92//10
f  123//10 9//10 92//10
f  124//10 9//10 123//10
f  114//10 107//10 123//10
f  114//10 116//10 107//10
f  107//10 116//10 109//10
f  125//59 126//59 122//59
f  127//59 128//59 125//59
f  122//59 126//59 123//59
f  129//59 130//59 126//59
f  126//59 130//59 131//59
f  132//59 128//59 127//59
f  133//80 134//80 121//80
f  121//80 134//80 122//81
f  122//81 134//80 125//81
f  1//23 3//23 121//23
f  121//23 3//23 10//82
f  124//23 121//23 10//82
f  124//23 133//83 121//23
f  124//23 10//82 9//23
f  124//23 135//83 133//83
f  126//1 136//1 123//1
f  123//1 136//1 124//1
f  124//1 136//1 135//1
f  136//10 126//10 134//10
f  134//10 126//10 125//10
f  76//10 137//10 71//10
f  71//10 137//10 138//10
f  138//10 137//10 139//10
f  102//10 101//10 137//10
f  137//10 101//10 139//10
f  140//10 138//10 139//10
f  140//10 141//10 138//10
f  140//10 142//10 141//10
f  140//10 143//10 142//10
f  140//10 104//10 143//10
f  140//10 99//10 104//10
f  143//10 130//10 142//10
f  142//10 130//10 129//10
f  141//10 142//10 144//10
f  142//10 145//10 144//10
f  146//10 144//10 44//10
f  146//10 141//10 144//10
f  145//10 147//10 144//10
f  144//10 39//10 44//10
f  128//10 148//10 145//10
f  148//10 147//10 145//10
f  148//10 41//10 147//10
f  128//10 132//10 148//10
f  42//10 41//10 148//10
f  146//10 74//10 141//10
f  141//10 74//10 73//10
f  73//1 68//1 141//1
f  141//1 68//1 78//1
f  144//59 45//59 39//59
f  39//59 45//59 35//59
f  144//3 147//3 45//3
f  45//3 147//3 46//3
f  41//23 36//23 147//23
f  147//23 36//23 46//23
f  149//10 150//10 151//10
f  151//10 150//10 152//10
f  153//10 154//10 155//10
f  155//10 154//10 156//10
f  157//10 158//10 159//10
f  159//10 158//10 160//10
f  161//10 162//10 163//10
f  163//10 162//10 164//10
f  145//1 134//1 128//1
f  128//1 134//1 125//1
f  145//59 142//59 134//59
f  134//59 142//59 136//59
f  129//3 126//3 142//3
f  142//3 126//3 136//3
f  46//14 165//14 5//14
f  46//14 43//14 165//14
f  46//14 36//14 43//14
f  127//14 125//14 165//14
f  165//14 125//14 134//14
f  133//14 165//14 134//14
f  133//14 5//14 165//14
f  133//14 50//14 5//14
f  133//14 16//14 50//14
f  133//14 135//14 16//14
f  50//14 16//14 166//14
f  77//14 50//14 166//14
f  50//14 49//14 5//14
f  16//14 135//14 14//14
f  16//14 106//14 166//14
f  14//14 135//14 167//14
f  135//14 136//14 167//14
f  105//14 14//14 167//14
f  105//14 167//14 95//14
f  167//14 136//14 131//14
f  167//14 98//14 95//14
f  131//14 136//14 126//14
f  77//14 166//14 67//14
f  106//14 103//14 166//14
f  166//14 70//14 67//14
f  96//14 103//14 106//14
f  5//14 49//14 6//14
f  6//14 49//14 168//14
f  49//14 78//14 168//14
f  45//14 6//14 168//14
f  45//14 168//14 35//14
f  168//14 78//14 68//14
f  75//14 168//14 68//14
f  168//14 38//14 35//14
f  138//23 141//23 77//23
f  77//23 141//23 78//23
f  138//3 77//3 71//3
f  71//3 77//3 67//3
f  52//14 51//14 169//14
f  169//14 51//14 91//14
f  17//14 66//14 18//14
f  18//14 66//14 170//14
f  92//14 114//14 93//14
f  93//14 114//14 171//14
f  167//84 92//84 98//84
f  98//84 92//84 93//85
f  98//84 93//85 104//86
f  104//86 93//85 153//86
f  155//43 104//86 153//86
f  155//43 143//84 104//86
f  130//3 114//3 131//3
f  130//3 156//3 114//3
f  130//3 155//3 156//3
f  130//3 143//3 155//3
f  114//3 92//3 131//3
f  131//3 92//3 167//3
f  171//59 114//59 154//59
f  154//59 114//59 156//59
f  93//1 171//1 153//1
f  153//1 171//1 154//1
f  140//23 105//23 99//23
f  99//23 105//23 95//23
f  165//1 32//1 127//1
f  127//1 32//1 107//1
f  127//1 107//1 132//1
f  132//1 107//1 150//1
f  149//1 132//1 150//1
f  149//1 148//1 132//1
f  42//23 34//23 43//23
f  42//23 151//23 34//23
f  42//23 149//23 151//23
f  42//23 148//23 149//23
f  34//23 32//23 43//23
f  43//23 32//23 165//23
f  172//3 34//3 152//3
f  152//3 34//3 151//3
f  107//59 172//59 150//59
f  150//59 172//59 152//59
f  168//59 17//59 38//59
f  38//59 17//59 18//59
f  38//59 18//59 44//59
f  44//59 18//59 164//59
f  162//59 44//59 164//59
f  162//59 146//59 44//59
f  74//87 66//87 75//87
f  74//87 161//87 66//87
f  74//87 162//88 161//87
f  74//87 146//44 162//88
f  66//87 17//45 75//87
f  75//87 17//45 168//44
f  170//23 66//23 163//23
f  163//23 66//23 161//23
f  18//3 170//3 164//3
f  164//3 170//3 163//3
f  166//3 51//3 70//3
f  70//3 51//3 52//3
f  70//3 52//3 76//3
f  76//3 52//3 158//3
f  157//3 76//3 158//3
f  157//3 137//3 76//3
f  102//59 91//59 103//59
f  102//59 159//59 91//59
f  102//59 157//59 159//59
f  102//59 137//59 157//59
f  91//59 51//59 103//59
f  103//59 51//59 166//59
f  169//1 91//1 160//1
f  160//1 91//1 159//1
f  52//23 169//23 158//23
f  158//23 169//23 160//23
f  101//59 96//59 139//59
f  139//59 96//59 106//59
f  140//89 139//89 105//89
f  105//89 139//89 106//89
f  34//14 172//14 32//14
f  32//14 172//14 107//14

